<?xml version="1.0" standalone="no"?>
<!DOCTYPE svg PUBLIC "-//W3C//DTD SVG 20010904//EN"
 "http://www.w3.org/TR/2001/REC-SVG-20010904/DTD/svg10.dtd">
<svg version="1.0" xmlns="http://www.w3.org/2000/svg"
 width="1429.000000pt" height="2000.000000pt" viewBox="0 0 1429.000000 2000.000000"
 preserveAspectRatio="xMidYMid meet">

<g transform="translate(0.000000,2000.000000) scale(0.100000,-0.100000)"
fill="#000000" stroke="none">
<path d="M0 10000 l0 -10000 7145 0 7145 0 0 10000 0 10000 -7145 0 -7145 0 0
-10000z m11840 9485 l0 -65 -5200 0 -5199 0 -5 -37 c-37 -257 -115 -425 -270
-579 -154 -153 -342 -244 -558 -269 l-58 -6 0 -8519 0 -8518 88 -12 c389 -55
698 -342 776 -722 9 -42 16 -94 16 -115 0 -21 4 -44 8 -51 8 -12 535 -12
10880 -12 l462 0 0 43 c0 23 9 83 19 132 79 385 396 675 792 726 l89 12 0 196
c0 108 0 3780 0 8161 0 4381 0 8125 0 8321 l0 356 -91 12 c-179 23 -336 90
-475 203 -179 145 -304 378 -329 611 l-7 67 -459 0 -459 0 0 65 0 65 524 0
523 0 5 -127 c4 -110 10 -142 37 -222 73 -217 209 -369 416 -466 121 -58 178
-70 322 -70 l123 0 0 -8656 0 -8655 -112 0 c-137 -1 -219 -19 -343 -79 -159
-77 -288 -204 -363 -358 -62 -125 -76 -192 -77 -340 l0 -127 -5805 0 -5805 0
-1 118 c-2 141 -25 240 -84 357 -131 262 -394 424 -692 428 l-108 2 0 8651 0
8651 118 6 c222 11 373 78 532 237 155 154 218 299 227 523 l6 127 5268 0
5269 0 0 -65z m740 -392 c109 -358 415 -661 773 -765 l77 -22 0 -8003 c0
-7107 -2 -8003 -15 -8003 -13 0 -15 894 -15 7989 l0 7989 -82 27 c-180 60
-328 153 -474 299 -138 139 -225 276 -284 451 l-28 80 -5425 3 -5425 2 -11
-47 c-17 -66 -100 -239 -158 -326 -26 -39 -91 -115 -143 -167 -134 -134 -260
-215 -445 -284 l-90 -34 -3 -7714 c-3 -7691 0 -8838 22 -8838 34 0 238 -97
326 -154 225 -147 388 -360 480 -624 l33 -92 4916 0 c4973 0 5920 4 5926 24
63 221 180 415 341 565 131 122 292 216 472 275 l52 18 0 274 c0 237 2 274 15
274 13 0 15 -39 15 -288 l0 -288 -86 -28 c-366 -119 -659 -417 -765 -778 l-23
-78 -5446 0 -5446 0 -22 78 c-103 355 -394 651 -757 772 l-80 27 -3 8301 -2
8300 72 22 c271 82 534 297 671 550 43 78 93 202 102 253 l7 37 5452 0 5452 0
24 -77z m-3532 -810 c-2 -88 -6 -108 -18 -108 -12 0 -16 20 -18 108 -3 102 -2
107 18 107 20 0 21 -5 18 -107z m-3555 59 c16 -14 24 -42 11 -42 -3 0 -17 9
-31 20 -31 24 -76 26 -97 4 -35 -34 -12 -58 82 -89 59 -19 79 -46 68 -89 -9
-36 -49 -59 -101 -59 -47 0 -95 24 -95 48 0 21 17 19 47 -5 14 -11 38 -20 52
-20 53 0 92 51 59 77 -7 6 -37 18 -67 28 -62 20 -91 45 -91 78 0 26 34 62 65
70 29 7 77 -3 98 -21z m812 -72 l70 -100 3 95 c2 75 6 95 17 95 13 0 15 -24
15 -140 0 -77 -2 -140 -5 -140 -2 0 -35 44 -72 98 l-68 97 -3 -92 c-2 -74 -6
-93 -17 -93 -13 0 -15 24 -15 140 0 77 1 140 3 140 1 0 34 -45 72 -100z m985
84 c100 -40 117 -160 34 -234 -63 -55 -171 -34 -210 41 -38 74 4 176 81 198
43 13 50 13 95 -5z m621 4 c1 -29 67 -182 72 -168 3 8 13 50 22 93 11 52 21
77 31 77 8 0 14 -3 14 -7 -1 -17 -58 -275 -62 -278 -2 -3 -21 43 -43 101 -21
57 -41 107 -45 109 -3 2 -23 -43 -45 -101 -21 -57 -41 -104 -44 -104 -5 0 -61
250 -61 273 0 4 6 7 14 7 9 0 20 -28 32 -89 10 -49 21 -88 24 -86 4 2 22 45
40 95 31 82 49 110 51 78z m580 -88 l64 -92 3 91 c2 72 6 91 17 91 13 0 15
-24 15 -141 0 -162 10 -161 -91 -15 l-54 78 -3 -96 c-2 -76 -6 -96 -17 -96
-13 0 -15 24 -15 141 0 77 4 138 8 135 5 -3 37 -46 73 -96z m-2656 65 c56 -55
15 -135 -70 -135 l-45 0 0 -55 c0 -42 -3 -55 -15 -55 -13 0 -15 22 -15 135 l0
135 60 0 c51 0 65 -4 85 -25z m215 -110 c0 -113 -2 -135 -15 -135 -13 0 -15
22 -15 135 0 113 2 135 15 135 13 0 15 -22 15 -135z m900 120 c0 -10 -10 -15
-30 -15 l-30 0 0 -120 c0 -100 -2 -120 -15 -120 -12 0 -15 20 -15 119 l0 120
-32 3 c-17 2 -33 9 -36 16 -3 9 17 12 77 12 65 0 81 -3 81 -15z m1280 -120 c0
-113 -2 -135 -15 -135 -13 0 -15 22 -15 135 0 113 2 135 15 135 13 0 15 -22
15 -135z m820 -115 c0 -13 -7 -20 -20 -20 -13 0 -20 7 -20 20 0 13 7 20 20 20
13 0 20 -7 20 -20z m1525 -12215 l0 -30 -3420 0 c-3291 0 -3420 1 -3423 18 -2
10 -1 25 2 33 5 12 453 14 3423 12 l3418 -3 0 -30z m3 -107 l3 -28 -3425 0
-3426 0 0 23 c0 13 3 27 7 30 3 4 1543 6 3422 5 l3416 -3 3 -27z m-4893 -1258
c142 -305 264 -570 271 -587 l14 -33 -208 0 -208 0 -34 70 -34 70 -212 0 -212
0 -22 -57 c-27 -68 -46 -93 -71 -93 -36 0 -40 33 -8 86 16 27 29 54 29 59 0 6
-14 16 -31 22 -24 9 -30 17 -27 35 3 20 10 23 49 26 l46 3 163 397 c220 535
232 563 235 560 2 -2 119 -253 260 -558z m2960 219 c226 -179 416 -329 423
-333 12 -7 13 44 11 301 -2 169 0 314 5 321 11 18 44 15 53 -5 5 -10 6 -276 3
-591 l-5 -572 -425 333 -425 334 -5 -306 c-3 -168 -9 -312 -13 -318 -5 -7 -16
-13 -26 -13 -10 0 -22 6 -27 13 -5 6 -8 274 -6 595 2 453 6 582 15 574 7 -5
197 -155 422 -333z m-4147 285 c62 -16 148 -58 180 -87 25 -23 28 -49 8 -66
-17 -14 -42 -5 -83 30 -63 54 -230 94 -338 80 l-50 -6 0 -510 0 -510 120 1
c144 1 209 21 286 90 58 51 86 56 95 17 6 -23 1 -32 -29 -58 -49 -42 -132 -82
-214 -102 -92 -22 -258 -21 -342 1 -211 57 -364 208 -416 411 -19 76 -19 234
0 308 57 218 260 387 499 417 84 10 210 3 284 -16z m2307 -5 c88 -27 130 -57
130 -94 0 -41 -23 -42 -81 -5 -65 41 -133 60 -216 60 -60 0 -72 -3 -93 -25
-54 -53 -26 -97 166 -262 168 -143 243 -223 287 -307 24 -45 27 -62 27 -146 0
-84 -3 -101 -27 -145 -49 -92 -142 -163 -258 -196 -75 -21 -243 -16 -330 10
-133 41 -204 96 -180 140 15 29 29 27 96 -19 81 -55 165 -80 273 -80 101 0
167 25 189 73 32 67 -10 122 -223 292 -244 195 -309 284 -309 425 -1 62 4 84
26 126 82 156 304 221 523 153z m3505 -5 c265 -84 418 -356 367 -653 -37 -218
-175 -382 -375 -445 -390 -122 -757 122 -779 518 -24 425 367 713 787 580z
m-2520 -549 l0 -565 -205 0 -205 0 0 565 0 565 205 0 205 0 0 -565z m-2972
-1294 l427 -339 5 316 c5 295 6 317 23 320 48 9 47 18 47 -599 0 -319 -2 -579
-5 -579 -3 0 -198 151 -433 335 l-427 336 -5 -312 c-4 -273 -7 -313 -21 -322
-9 -6 -24 -7 -33 -4 -15 6 -16 59 -16 597 0 324 2 590 5 590 3 0 198 -153 433
-339z m2465 282 c122 -36 222 -107 201 -141 -19 -29 -47 -24 -104 18 -75 56
-158 80 -276 80 l-94 0 0 -515 0 -515 64 0 c164 0 333 108 410 262 22 45 26
65 26 145 0 77 3 95 16 100 9 3 24 2 32 -3 13 -8 15 -50 16 -278 1 -237 -1
-270 -15 -279 -9 -6 -24 -7 -33 -4 -13 5 -16 24 -16 123 l0 117 -28 -39 c-100
-137 -249 -206 -447 -207 -117 0 -155 9 -265 62 -67 32 -175 137 -213 208 -89
167 -87 419 5 582 69 121 227 246 358 281 116 32 263 33 363 3z m1586 3 c9
-11 10 -51 5 -150 l-7 -136 40 0 c69 0 70 -56 1 -66 l-40 -7 3 -376 c2 -207 0
-382 -5 -389 -9 -15 -42 -16 -52 0 -4 6 -6 181 -5 390 l2 378 -200 0 -201 0 0
-385 0 -385 -205 0 -205 0 0 565 0 565 205 0 205 0 0 -150 0 -150 201 0 200 0
-2 143 c-1 79 1 148 5 155 10 16 41 15 55 -2z m1266 -3 c4 -12 -1 -24 -15 -35
-18 -15 -42 -18 -131 -18 l-109 0 0 -535 0 -535 -210 0 -210 0 0 536 0 537
-135 -6 c-121 -5 -136 -4 -144 12 -24 45 -18 46 436 51 235 3 447 6 469 8 32
1 43 -2 49 -15z m-3985 -558 l0 -565 -205 0 -205 0 0 565 0 565 205 0 205 0 0
-565z m4420 -1315 l0 -30 -3420 0 -3420 0 0 30 0 30 3420 0 3420 0 0 -30z m0
-110 l0 -30 -3420 0 -3420 0 0 30 0 30 3420 0 3420 0 0 -30z"/>
<path d="M7194 18326 c-41 -18 -64 -52 -64 -94 0 -67 42 -111 105 -112 47 0
79 19 101 62 44 85 -53 183 -142 144z"/>
<path d="M5720 18280 l0 -50 43 0 c49 0 67 13 67 50 0 37 -18 50 -67 50 l-43
0 0 -50z"/>
<path d="M5251 4510 c-6 -14 -44 -107 -85 -207 l-73 -182 51 -6 c28 -3 110 -5
182 -3 l131 3 -83 180 c-46 99 -90 194 -98 210 l-14 30 -11 -25z"/>
<path d="M10030 4475 l0 -515 38 -1 c181 -6 302 38 411 150 117 121 166 308
127 492 -50 236 -242 389 -487 389 l-89 0 0 -515z"/>
</g>
</svg>
